<?xml version="1.0" encoding="UTF-8" standalone="no"?>
<!-- Generator: Adobe Illustrator 16.0.0, SVG Export Plug-In . SVG Version: 6.00 Build 0)  -->

<svg
   xmlns:dc="http://purl.org/dc/elements/1.1/"
   xmlns:cc="http://creativecommons.org/ns#"
   xmlns:rdf="http://www.w3.org/1999/02/22-rdf-syntax-ns#"
   xmlns:svg="http://www.w3.org/2000/svg"
   xmlns="http://www.w3.org/2000/svg"
   xmlns:sodipodi="http://sodipodi.sourceforge.net/DTD/sodipodi-0.dtd"
   xmlns:inkscape="http://www.inkscape.org/namespaces/inkscape"
   version="1.1"
   id="Layer_1"
   x="0px"
   y="0px"
   width="90px"
   height="90px"
   viewBox="0 0 90 90"
   enable-background="new 0 0 90 90"
   xml:space="preserve"
   sodipodi:docname="cluster-02.svg"
   inkscape:version="0.92.0 r"><metadata
     id="metadata4515"><rdf:RDF><cc:Work
         rdf:about=""><dc:format>image/svg+xml</dc:format><dc:type
           rdf:resource="http://purl.org/dc/dcmitype/StillImage" /></cc:Work></rdf:RDF></metadata><defs
     id="defs4513" /><sodipodi:namedview
     pagecolor="#ffffff"
     bordercolor="#666666"
     borderopacity="1"
     objecttolerance="10"
     gridtolerance="10"
     guidetolerance="10"
     inkscape:pageopacity="0"
     inkscape:pageshadow="2"
     inkscape:window-width="1920"
     inkscape:window-height="1016"
     id="namedview4511"
     showgrid="false"
     inkscape:zoom="9.1444444"
     inkscape:cx="45"
     inkscape:cy="45"
     inkscape:window-x="0"
     inkscape:window-y="27"
     inkscape:window-maximized="1"
     inkscape:current-layer="Layer_1" /><g
     id="g4519"
     transform="matrix(0.75,0,0,0.75,11.25,11.25)"><path
       id="path4506"
       d="M 44.998,0.999 C 20.697,0.999 1,20.7 1,44.996 1,69.301 20.697,89.001 44.998,89.001 69.296,89.001 89,69.301 89,44.996 89,20.7 69.296,0.999 44.998,0.999 Z m 0,80.702 C 24.729,81.701 8.3,65.27 8.3,44.996 8.3,24.731 24.729,8.299 44.998,8.299 c 20.267,0 36.701,16.433 36.701,36.697 0,20.274 -16.434,36.705 -36.701,36.705 z"
       inkscape:connector-curvature="0"
       style="fill:#8cc541" /><path
       id="path4508"
       d="m 76.428,44.998 c 0,17.359 -14.074,31.431 -31.43,31.431 -17.357,0 -31.426,-14.071 -31.426,-31.431 0,-17.354 14.069,-31.427 31.426,-31.427 17.356,0 31.43,14.073 31.43,31.427 z"
       inkscape:connector-curvature="0"
       style="fill:#8cc541" /></g></svg>