<?xml version="1.0" encoding="utf-8"?>
<!-- Generator: Adobe Illustrator 16.0.0, SVG Export Plug-In . SVG Version: 6.00 Build 0)  -->
<!DOCTYPE svg PUBLIC "-//W3C//DTD SVG 1.1//EN" "http://www.w3.org/Graphics/SVG/1.1/DTD/svg11.dtd">
<svg version="1.1" id="Layer_1" xmlns="http://www.w3.org/2000/svg" xmlns:xlink="http://www.w3.org/1999/xlink" x="0px" y="0px"
	 width="38px" height="38px" viewBox="0 0 38 38" enable-background="new 0 0 38 38" xml:space="preserve">
<g>
	<path fill="#00ADEE" d="M19,0C10.813,0,4.175,6.637,4.175,14.825C4.175,24.868,19,38,19,38s14.825-13.132,14.825-23.175
		C33.825,6.637,27.188,0,19,0z"/>
	<g>
		<path fill="#FFFFFF" d="M25.046,15.535c-0.564,0-1.1,0.121-1.587,0.336l-0.271-0.481v-1.688c0.267-0.077,0.487-0.29,0.555-0.581
			c0.1-0.427-0.166-0.854-0.593-0.955l-2.682-0.626l0.012-2.654c0-0.08-0.016-0.156-0.037-0.229
			c0.917-0.011,1.658-0.756,1.658-1.677c0-0.927-0.752-1.679-1.678-1.679c-0.928,0-1.68,0.752-1.68,1.679
			c0,0.302,0.086,0.58,0.225,0.824C18.668,7.846,18.383,8,18.185,8.26l-0.419,0.547l-0.272-0.228c0,0-1.723-1.458-3.709,1.722
			c-0.967,1.546-1.213,2.115-1.211,2.293c0.001,0.144,2.344-0.968,3.439-1.495l-1.004,1.311c-0.399,0.523-0.3,1.271,0.223,1.671
			c0.069,0.054,0.144,0.095,0.219,0.13l-0.925,1.653c-0.482-0.21-1.015-0.328-1.573-0.328c-2.18,0-3.952,1.773-3.952,3.952
			c0,2.178,1.772,3.952,3.952,3.952c2.061,0,3.755-1.585,3.935-3.599l0.98-0.01c0.11,0.154,0.275,0.273,0.476,0.316
			c0.058,0.014,0.115,0.018,0.171,0.018c0.365,0,0.694-0.252,0.775-0.623l0.138-0.629l3.256-2.802l0.086,0.152
			c-1.012,0.717-1.675,1.894-1.675,3.224c0,2.178,1.772,3.952,3.952,3.952S29,21.665,29,19.487
			C29,17.309,27.226,15.535,25.046,15.535z M14.632,17.302c0.547,0.421,0.932,1.041,1.043,1.752l-2.04,0.027L14.632,17.302z
			 M12.952,22.248c-1.521,0-2.76-1.239-2.76-2.761c0-1.522,1.238-2.76,2.76-2.76c0.348,0,0.68,0.067,0.986,0.185l-1.333,2.382
			c-0.069,0.123-0.067,0.273,0.005,0.396c0.072,0.119,0.202,0.193,0.342,0.193h0.005l2.728-0.029
			C15.505,21.202,14.349,22.248,12.952,22.248z M17.775,19.026l-0.897,0.012c-0.131-1.149-0.758-2.15-1.66-2.784l0.64-1.143
			l2.003,3.522L17.775,19.026z M18.114,17.473l-1.632-2.87l1.992,1.222L18.114,17.473z M22.393,15.312l-2.684,2.311l0.439-2.011
			c0.001-0.008,0.001-0.016,0.003-0.023c0.006-0.028,0.008-0.059,0.01-0.087c0.002-0.024,0.004-0.048,0.004-0.071
			c0-0.026-0.004-0.051-0.006-0.077c-0.004-0.026-0.006-0.053-0.012-0.078c-0.005-0.023-0.013-0.046-0.02-0.069
			c-0.009-0.025-0.016-0.051-0.026-0.074c-0.01-0.023-0.022-0.045-0.034-0.067c-0.013-0.022-0.023-0.045-0.038-0.066
			c-0.015-0.021-0.03-0.04-0.047-0.06s-0.033-0.041-0.052-0.06c-0.018-0.017-0.035-0.03-0.054-0.046
			c-0.022-0.019-0.046-0.037-0.071-0.053c-0.006-0.005-0.012-0.011-0.018-0.016l-2.436-1.492l1.526-1.995l-0.004,0.892
			c-0.001,0.37,0.254,0.693,0.614,0.777l2.903,0.677V15.312z M25.046,22.248c-1.521,0-2.76-1.239-2.76-2.761
			c0-0.887,0.421-1.673,1.072-2.179l1.342,2.374c0.073,0.129,0.208,0.201,0.347,0.201c0.065,0,0.134-0.016,0.196-0.051
			c0.189-0.107,0.258-0.352,0.149-0.543l-1.343-2.374c0.31-0.12,0.645-0.188,0.996-0.188c1.523,0,2.762,1.237,2.762,2.76
			C27.808,21.009,26.569,22.248,25.046,22.248z"/>
		<path fill="#FFFFFF" d="M19.316,5.148c0.266,0,0.604-0.056,0.956-0.156c0.231-0.066,1.377-0.423,1.237-0.909
			c-0.051-0.18-0.244-0.271-0.576-0.271c-0.265,0-0.604,0.056-0.955,0.156c-0.335,0.096-0.642,0.223-0.864,0.356
			c-0.301,0.181-0.427,0.366-0.373,0.552C18.792,5.057,18.985,5.148,19.316,5.148z M20.089,4.351
			C20.4,4.262,20.708,4.21,20.934,4.21c0.048,0,0.086,0.002,0.116,0.005c-0.135,0.104-0.436,0.266-0.888,0.395
			c-0.312,0.09-0.62,0.141-0.846,0.141c-0.047,0-0.085-0.002-0.115-0.005C19.337,4.641,19.637,4.48,20.089,4.351z"/>
	</g>
</g>
</svg>
